<svg width="48" height="33" viewBox="0 0 48 33" fill="none" xmlns="http://www.w3.org/2000/svg">
<path d="M24.225 22.4188C26.1085 20.8343 27.4592 18.7089 28.094 16.3308C28.7288 13.9528 28.617 11.437 27.7737 9.1246C26.9304 6.81222 25.3965 4.81508 23.3798 3.40394C21.3631 1.99281 18.9613 1.23593 16.5 1.23593C14.0386 1.23593 11.6368 1.99281 9.62016 3.40394C7.60349 4.81508 6.06954 6.81222 5.22625 9.1246C4.38297 11.437 4.27115 13.9528 4.90595 16.3308C5.54075 18.7089 6.89147 20.8343 8.77498 22.4188C5.72031 23.8011 3.09171 25.9765 1.16248 28.7188C0.82008 29.2063 0.685035 29.8098 0.78697 30.3968C0.888905 30.9838 1.2195 31.5064 1.70623 31.85C2.08358 32.1197 2.53616 32.264 2.99998 32.2625C3.36075 32.2635 3.7164 32.1771 4.03643 32.0105C4.35646 31.844 4.63133 31.6023 4.83748 31.3063C6.15208 29.4339 7.89816 27.9056 9.92811 26.8505C11.9581 25.7954 14.2122 25.2446 16.5 25.2446C18.7878 25.2446 21.0419 25.7954 23.0719 26.8505C25.1018 27.9056 26.8479 29.4339 28.1625 31.3063C28.3255 31.5638 28.5391 31.7856 28.7904 31.9581C29.0417 32.1307 29.3254 32.2503 29.6243 32.3099C29.9233 32.3694 30.2312 32.3676 30.5294 32.3045C30.8276 32.2414 31.1099 32.1184 31.3592 31.9429C31.6084 31.7675 31.8194 31.5432 31.9793 31.2837C32.1392 31.0242 32.2448 30.7349 32.2895 30.4334C32.3342 30.1319 32.3172 29.8244 32.2395 29.5297C32.1618 29.2349 32.025 28.959 31.8375 28.7188C29.9083 25.9765 27.2797 23.8011 24.225 22.4188ZM8.99998 13.25C8.99998 11.7667 9.43985 10.3166 10.264 9.08324C11.0881 7.84987 12.2594 6.88857 13.6299 6.32091C15.0003 5.75326 16.5083 5.60473 17.9632 5.89412C19.418 6.18351 20.7544 6.89782 21.8033 7.94671C22.8522 8.9956 23.5665 10.332 23.8559 11.7868C24.1453 13.2417 23.9967 14.7497 23.4291 16.1201C22.8614 17.4906 21.9001 18.6619 20.6668 19.486C19.4334 20.3101 17.9833 20.75 16.5 20.75C14.5109 20.75 12.6032 19.9598 11.1967 18.5533C9.79016 17.1468 8.99998 15.2391 8.99998 13.25ZM46.575 31.85C46.1976 32.1197 45.7451 32.264 45.2812 32.2625C44.921 32.2604 44.5665 32.1726 44.247 32.0063C43.9275 31.8401 43.6521 31.6001 43.4437 31.3063C42.1263 29.4372 40.3795 27.9116 38.3501 26.8577C36.3207 25.8039 34.068 25.2525 31.7812 25.25C31.1845 25.25 30.6122 25.013 30.1902 24.591C29.7683 24.169 29.5312 23.5967 29.5312 23C29.5312 22.4033 29.7683 21.831 30.1902 21.409C30.6122 20.9871 31.1845 20.75 31.7812 20.75C33.7704 20.75 35.678 19.9598 37.0845 18.5533C38.4911 17.1468 39.2812 15.2391 39.2812 13.25C39.2812 11.2609 38.4911 9.35323 37.0845 7.94671C35.678 6.54019 33.7704 5.75001 31.7812 5.75001C31.0964 5.74872 30.4148 5.84339 29.7562 6.03126C29.4703 6.11656 29.1702 6.14412 28.8734 6.11234C28.5767 6.08055 28.2893 5.99006 28.0279 5.84612C27.7664 5.70218 27.5363 5.50767 27.3507 5.27392C27.1652 5.04018 27.028 4.77186 26.9472 4.48459C26.8664 4.19732 26.8435 3.89684 26.8799 3.60064C26.9163 3.30444 27.0113 3.01845 27.1593 2.75931C27.3073 2.50016 27.5053 2.27305 27.742 2.09119C27.9786 1.90933 28.249 1.77636 28.5375 1.70001C29.5925 1.39965 30.6843 1.24819 31.7812 1.25001C34.2442 1.24286 36.6496 1.99495 38.6698 3.40389C40.69 4.81283 42.2269 6.81014 43.0713 9.1239C43.9156 11.4377 44.0264 13.9554 43.3884 16.3344C42.7505 18.7133 41.3949 20.8379 39.5062 22.4188C42.5609 23.8011 45.1895 25.9765 47.1187 28.7188C47.2907 28.9593 47.4132 29.2317 47.479 29.52C47.5447 29.8083 47.5526 30.1068 47.502 30.3981C47.4514 30.6895 47.3434 30.9679 47.1842 31.2171C47.0251 31.4664 46.818 31.6815 46.575 31.85V31.85Z" fill="#4CAF4F" stroke="#4CAF4F"/>
</svg>
